<?xml version="1.0" encoding="UTF-8"?>
<svg version="1.1" xmlns="http://www.w3.org/2000/svg" width="657" height="157">
<path d="M0 0 C1.65 0 3.3 0 5 0 C14 17.33606557 14 17.33606557 14 23 C14.825 23.0825 15.65 23.165 16.5 23.25 C20.76753921 24.16447269 24.19236894 25.92223178 28 28 C27.67 29.32 27.34 30.64 27 32 C25.824375 31.855625 24.64875 31.71125 23.4375 31.5625 C22.70144531 31.48 21.96539063 31.3975 21.20703125 31.3125 C19 31 19 31 15.625 30.0625 C10.72801969 29.9780693 8.12441912 31.97148546 4.13671875 34.65234375 C2 36 2 36 0 36 C0 36.66 0 37.32 0 38 C0.55945313 38.2371875 1.11890625 38.474375 1.6953125 38.71875 C11.8557087 44.36724145 18.47552873 55.27331248 22.375 65.875 C26.04919691 78.93538061 25.38573849 93.55708695 20 106 C19.59910156 106.93972656 19.19820312 107.87945312 18.78515625 108.84765625 C12.41345322 121.97890511 1.08448854 130.95657739 -12.2734375 136.3125 C-27.14951354 141.21445641 -42.52039848 140.38771598 -56.73828125 133.71484375 C-71.64758031 125.39067834 -80.89180853 113.1055789 -86 97 C-89.84536237 82.15398073 -86.58547542 66.24441895 -79.14453125 53.1796875 C-70.72785975 40.70032392 -58.28867803 32.27407052 -43.80078125 28.4140625 C-31.57953935 26.60729592 -19.4612275 27.31511869 -8 32 C-6.02 29.69 -4.04 27.38 -2 25 C-3.9097546 24.41446203 -5.8282296 23.85730812 -7.75 23.3125 C-8.81734375 22.99925781 -9.8846875 22.68601562 -10.984375 22.36328125 C-14.00193782 21.6721437 -14.00193782 21.6721437 -16.15625 23.40625 C-16.7646875 23.9321875 -17.373125 24.458125 -18 25 C-21.75 25.1875 -21.75 25.1875 -25 25 C-25 22 -25 22 -23.625 20.3125 C-22 19 -22 19 -20 19 C-20 18.34 -20 17.68 -20 17 C-42.10740181 17.51174541 -61.70308938 21.65480224 -78 38 C-90.98595351 53.15105346 -97.55864013 70.81441097 -96.21142578 90.95019531 C-94.28015799 109.67412642 -85.08631586 125.57164285 -70.9609375 137.828125 C-57.37185449 147.79584288 -42.64760558 151.28582757 -26 152 C-26 152.66 -26 153.32 -26 154 C-47.78697025 154.79627505 -66.39808556 151.32688741 -83 136 C-97.84456415 121.51259829 -105.72839046 104.43608657 -106.3125 83.6875 C-105.95843114 64.00127113 -98.56208317 47.4845661 -85.24609375 33.15625 C-69.16516696 17.71856028 -50.94743567 12.43628604 -29.15234375 12.796875 C-26.00828683 12.90090371 -23.06390597 13.23556471 -20 14 C-20 11.69 -20 9.38 -20 7 C-16.6875 7.0625 -16.6875 7.0625 -13 8 C-12.34933824 9.72425368 -11.70575127 11.4530548 -11.15234375 13.2109375 C-8.66105529 17.0787684 -3.22874705 17.84409461 1 19 C0.75443359 18.24976563 0.75443359 18.24976563 0.50390625 17.484375 C-0.1878911 14.0736532 -0.10504665 10.71264243 -0.0625 7.25 C-0.05798828 6.55261719 -0.05347656 5.85523438 -0.04882812 5.13671875 C-0.0371002 3.42444197 -0.01916653 1.71220967 0 0 Z M-28 34 C-28 41.59 -28 49.18 -28 57 C-21.07 55.515 -21.07 55.515 -14 54 C-15.03330278 48.83348611 -16.52854182 46.04397709 -19.3125 41.75 C-19.70373047 41.11320312 -20.09496094 40.47640625 -20.49804688 39.8203125 C-22.88302726 36.10243263 -23.54850228 35.11287443 -28 34 Z M-40 36 C-41.33903796 37.6531497 -41.33903796 37.6531497 -42.359375 39.625 C-42.75253906 40.33140625 -43.14570313 41.0378125 -43.55078125 41.765625 C-43.94652344 42.50296875 -44.34226562 43.2403125 -44.75 44 C-45.16121094 44.73734375 -45.57242188 45.4746875 -45.99609375 46.234375 C-48.21915554 49.91122286 -48.21915554 49.91122286 -49 54 C-44.38 54.99 -39.76 55.98 -35 57 C-35 49.41 -35 41.82 -35 34 C-36.9429109 34 -38.36510355 35.03820612 -40 36 Z M-15 37 C-14 39 -14 39 -14 39 Z M-60.76953125 43.4453125 C-61.89679752 44.58232459 -62.95801701 45.78435318 -64 47 C-62.906875 47.680625 -61.81375 48.36125 -60.6875 49.0625 C-60.07261719 49.44535156 -59.45773437 49.82820313 -58.82421875 50.22265625 C-56.82866925 51.31112074 -56.82866925 51.31112074 -54 50 C-52.3459129 47.52142296 -52.3459129 47.52142296 -50.875 44.5625 C-50.35679687 43.57378906 -49.83859375 42.58507813 -49.3046875 41.56640625 C-48.53202025 40.04651888 -47.76250538 38.52501076 -47 37 C-51.73596941 37 -57.17903497 40.51267757 -60.76953125 43.4453125 Z M-12 44 C-10.68 46.31 -9.36 48.62 -8 51 C-4.22454612 49.90931332 -1.52956528 49.0916909 1 46 C-5.3063338 40.47620836 -5.3063338 40.47620836 -12 44 Z M-69 51 C-76.38225987 59.89226757 -79.33375886 68.50734035 -80 80 C-74.06 80 -68.12 80 -62 80 C-61.09889957 75.05038401 -61.09889957 75.05038401 -60.20556641 70.09936523 C-59.38136476 65.63901332 -58.31237201 61.34223957 -57 57 C-60.96 55.02 -64.92 53.04 -69 51 Z M1.51953125 52.21484375 C0.17955078 53.06755859 0.17955078 53.06755859 -1.1875 53.9375 C-2.08855469 54.50339844 -2.98960937 55.06929687 -3.91796875 55.65234375 C-4.94857422 56.31943359 -4.94857422 56.31943359 -6 57 C-5.72285156 57.99 -5.44570313 58.98 -5.16015625 60 C-4.79398093 61.33325374 -4.42811196 62.66659166 -4.0625 64 C-3.88009766 64.64839844 -3.69769531 65.29679687 -3.50976562 65.96484375 C-3.33251953 66.61582031 -3.15527344 67.26679687 -2.97265625 67.9375 C-2.81031494 68.52402344 -2.64797363 69.11054687 -2.48071289 69.71484375 C-1.76767709 73.10438927 -1.42962307 76.56301544 -1 80 C4.94 80 10.88 80 17 80 C17 69.61068709 14.04652563 59.91089944 7 52 C4.03661817 50.62261229 4.03661817 50.62261229 1.51953125 52.21484375 Z M-52 59 C-52.67404284 61.56076097 -53.339414 64.12326583 -54 66.6875 C-54.19078125 67.40873047 -54.3815625 68.12996094 -54.578125 68.87304688 C-54.75859375 69.57880859 -54.9390625 70.28457031 -55.125 71.01171875 C-55.37636719 71.97791138 -55.37636719 71.97791138 -55.6328125 72.96362305 C-56.14787701 75.47523837 -56.14787701 75.47523837 -56 80 C-49.07 80 -42.14 80 -35 80 C-35 74.39 -35 68.78 -35 63 C-37.0625 62.525625 -39.125 62.05125 -41.25 61.5625 C-44.84097921 60.73657478 -48.42938128 59.91033101 -52 59 Z M-19.515625 61.24609375 C-22 62 -22 62 -28 63 C-28 68.61 -28 74.22 -28 80 C-21.07 80 -14.14 80 -7 80 C-7.47688943 72.56052488 -8.56987923 66.04582186 -11 59 C-14.04799044 59 -16.66455293 60.22855596 -19.515625 61.24609375 Z M-80 86 C-79.57575173 96.74762282 -76.71458494 106.43311576 -70 115 C-69.34 115.33 -68.68 115.66 -68 116 C-65.28873335 114.77667094 -65.28873335 114.77667094 -62.375 113.0625 C-61.37210937 112.49660156 -60.36921875 111.93070313 -59.3359375 111.34765625 C-58.56507813 110.90292969 -57.79421875 110.45820312 -57 110 C-57.26554687 109.02160156 -57.53109375 108.04320313 -57.8046875 107.03515625 C-59.68995532 100.05093394 -61.50915901 93.0814947 -63 86 C-68.61 86 -74.22 86 -80 86 Z M-56 86 C-55.52311057 93.43947512 -54.43012077 99.95417814 -52 107 C-47.80716882 106.35155914 -43.73500079 105.48783354 -39.625 104.4375 C-37.76875 103.963125 -35.9125 103.48875 -34 103 C-34.33 97.39 -34.66 91.78 -35 86 C-41.93 86 -48.86 86 -56 86 Z M-28 86 C-28 91.61 -28 97.22 -28 103 C-22.39 104.65 -16.78 106.3 -11 108 C-10.34 105.669375 -9.68 103.33875 -9 100.9375 C-8.79117188 100.21812256 -8.58234375 99.49874512 -8.3671875 98.75756836 C-8.20476562 98.16596924 -8.04234375 97.57437012 -7.875 96.96484375 C-7.70742188 96.3730835 -7.53984375 95.78132324 -7.3671875 95.17163086 C-6.8570891 92.15479227 -7 89.05965937 -7 86 C-13.93 86 -20.86 86 -28 86 Z M-1 86 C-1.4021875 89.155625 -1.4021875 89.155625 -1.8125 92.375 C-2.67961632 98.51343497 -4.04201226 104.12603677 -6 110 C-2.04 111.98 1.92 113.96 6 116 C13.00412086 105.9713724 17 98.35675344 17 86 C11.06 86 5.12 86 -1 86 Z M-28 110 C-28 117.26 -28 124.52 -28 132 C-23.22739452 131.56387253 -23.22739452 131.56387253 -21.60620117 129.44946289 C-21.25533447 128.7971167 -20.90446777 128.14477051 -20.54296875 127.47265625 C-19.95805664 126.40821289 -19.95805664 126.40821289 -19.36132812 125.32226562 C-18.97396484 124.57654297 -18.58660156 123.83082031 -18.1875 123.0625 C-17.78080078 122.32064453 -17.37410156 121.57878906 -16.95507812 120.81445312 C-14.76568421 117.10715836 -14.76568421 117.10715836 -14 113 C-15.76949612 112.49528803 -17.54065223 111.99639315 -19.3125 111.5 C-20.29863281 111.2215625 -21.28476562 110.943125 -22.30078125 110.65625 C-25.02287203 109.88187804 -25.02287203 109.88187804 -28 110 Z M-43.75 111.5 C-45.22726562 111.91765625 -45.22726562 111.91765625 -46.734375 112.34375 C-47.85585938 112.66859375 -47.85585938 112.66859375 -49 113 C-47.71078784 115.60540782 -46.41874404 118.20934373 -45.125 120.8125 C-44.76019531 121.55048828 -44.39539063 122.28847656 -44.01953125 123.04882812 C-43.66503906 123.76103516 -43.31054688 124.47324219 -42.9453125 125.20703125 C-42.62062988 125.8616333 -42.29594727 126.51623535 -41.96142578 127.19067383 C-40.90744328 129.24652798 -40.90744328 129.24652798 -39 132 C-37.35 132 -35.7 132 -34 132 C-34 124.74 -34 117.48 -34 110 C-37.70769715 110 -40.22812554 110.49375016 -43.75 111.5 Z M-63 119 C-63.33 119.66 -63.66 120.32 -64 121 C-62.27728773 122.15551453 -60.54653083 123.29904119 -58.8125 124.4375 C-57.84957031 125.07558594 -56.88664062 125.71367188 -55.89453125 126.37109375 C-52.80219883 128.30822119 -52.80219883 128.30822119 -48 129 C-49.98 124.71 -51.96 120.42 -54 116 C-57.73120489 116 -59.78055689 117.18031476 -63 119 Z M-8 116 C-10.31 120.29 -12.62 124.58 -15 129 C-10.62865771 128.12573154 -8.38991638 127.32999465 -4.6875 125.125 C-3.80449219 124.61195312 -2.92148437 124.09890625 -2.01171875 123.5703125 C-1.34785156 123.05210938 -0.68398438 122.53390625 0 122 C0 121.01 0 120.02 0 119 C-3.80427492 116.7986134 -3.80427492 116.7986134 -8 116 Z " fill="#3A3A3A" transform="translate(534,0)"/>
<path d="M0 0 C-2.46771352 9.78645113 -5.62756211 19.35217413 -8.72479248 28.95205688 C-15.66767451 50.48256219 -22.37783717 72.08030087 -28.9831543 93.71655273 C-29.31221268 94.79244659 -29.64127106 95.86834045 -29.9803009 96.97683716 C-30.59864012 98.99926224 -31.21540933 101.02216822 -31.83036804 103.04562378 C-32.10274796 103.93653717 -32.37512787 104.82745056 -32.65576172 105.74536133 C-32.89253632 106.52293289 -33.12931091 107.30050446 -33.3732605 108.10163879 C-34 110 -34 110 -35 112 C-42.59 112 -50.18 112 -58 112 C-59.52313514 108.95372973 -58.31938902 106.974028 -57.3828125 103.75 C-57.02316406 102.5021875 -56.66351563 101.254375 -56.29296875 99.96875 C-56.10138184 99.31777344 -55.90979492 98.66679687 -55.71240234 97.99609375 C-55.12789248 96.00982916 -54.55323987 94.02092782 -53.98046875 92.03125 C-51.16333128 82.32666256 -51.16333128 82.32666256 -50 80 C-52.31 80 -54.62 80 -57 80 C-62.24635952 63.71796436 -67.40078158 47.40954525 -72.43945312 31.06201172 C-73.52338366 27.54921841 -74.61329741 24.03831139 -75.703125 20.52734375 C-76.39619865 18.2813627 -77.08892121 16.03527327 -77.78125 13.7890625 C-78.10613403 12.74553619 -78.43101807 11.70200989 -78.76574707 10.62686157 C-79.06025757 9.66670135 -79.35476807 8.70654114 -79.65820312 7.71728516 C-79.91831177 6.8755777 -80.17842041 6.03387024 -80.44641113 5.16665649 C-81 3 -81 3 -81 0 C-72.75 0 -64.5 0 -56 0 C-50.87920819 16.96689018 -45.80181978 33.93941677 -41 51 C-38.07522138 41.99626975 -35.25904386 32.96656495 -32.6328125 23.87109375 C-32.43080734 23.17151047 -32.22880219 22.47192719 -32.02067566 21.75114441 C-31.00270314 18.21915624 -29.9908937 14.68548424 -28.98461914 11.15014648 C-28.60825922 9.83707008 -28.23187678 8.52400012 -27.85546875 7.2109375 C-27.52184326 6.03837402 -27.18821777 4.86581055 -26.84448242 3.65771484 C-26 1 -26 1 -25 0 C-21.20054187 -0.38320261 -17.37735217 -0.47012839 -13.5625 -0.625 C-12.48677734 -0.6765625 -11.41105469 -0.728125 -10.30273438 -0.78125 C-9.27599609 -0.82507812 -8.24925781 -0.86890625 -7.19140625 -0.9140625 C-6.24467041 -0.9548291 -5.29793457 -0.9955957 -4.32250977 -1.03759766 C-2 -1 -2 -1 0 0 Z " fill="#049DF8" transform="translate(416,37)"/>
<path d="M0 0 C4.67176175 3.8931348 7.81919512 8.48533923 9 14.5 C9.08735207 16.66947036 9.11766895 18.84147104 9.11352539 21.01269531 C9.11367142 21.65701508 9.11381744 22.30133484 9.1139679 22.96517944 C9.1132735 25.08619603 9.10550336 27.20712383 9.09765625 29.328125 C9.09579039 30.80214388 9.09436728 32.27616338 9.09336853 33.75018311 C9.08955661 37.62338992 9.07973765 41.49655903 9.06866455 45.36975098 C9.05842193 49.32462046 9.0538648 53.27949606 9.04882812 57.234375 C9.03811417 64.98960248 9.02052812 72.74479115 9 80.5 C1.08 80.5 -6.84 80.5 -15 80.5 C-15.33 61.69 -15.66 42.88 -16 23.5 C-23.80768663 23.48179721 -23.80768663 23.48179721 -30.5 26 C-32.06234375 26.69609375 -32.06234375 26.69609375 -33.65625 27.40625 C-34.4296875 27.7671875 -35.203125 28.128125 -36 28.5 C-35.99777939 29.13671127 -35.99555878 29.77342255 -35.99327087 30.4294281 C-35.9712196 37.03115276 -35.95609407 43.63286704 -35.94506836 50.23461914 C-35.94002644 52.70142033 -35.93319309 55.16821852 -35.92456055 57.63500977 C-35.91248875 61.17204529 -35.90677044 64.70904145 -35.90234375 68.24609375 C-35.89718246 69.35649521 -35.89202118 70.46689667 -35.88670349 71.61094666 C-35.88659019 73.14242088 -35.88659019 73.14242088 -35.88647461 74.70483398 C-35.884254 75.60862289 -35.88203339 76.5124118 -35.87974548 77.44358826 C-36 79.5 -36 79.5 -37 80.5 C-45.25 80.5 -53.5 80.5 -62 80.5 C-62 54.1 -62 27.7 -62 0.5 C-55.4 0.5 -48.8 0.5 -42 0.5 C-41.67 2.15 -41.34 3.8 -41 5.5 C-39.77023438 5.07847656 -38.54046875 4.65695313 -37.2734375 4.22265625 C-35.64070691 3.66902921 -34.00788981 3.11565725 -32.375 2.5625 C-31.56675781 2.28470703 -30.75851563 2.00691406 -29.92578125 1.72070312 C-21.00886521 -1.28784985 -8.9107574 -4.44558666 0 0 Z " fill="#3B3B3B" transform="translate(212,36.5)"/>
<path d="M0 0 C5.94818239 4.98191648 8.64837321 10.81942737 10.5 18.25 C10.87383943 23.06404664 10.8716363 27.87386112 10.87060547 32.70019531 C10.8749629 34.98058692 10.91130002 37.25901422 10.94921875 39.5390625 C11.02422074 49.29051783 10.28406575 58.53150887 4.25 66.625 C-5.33058202 75.77010102 -16.6299699 77.32091775 -29.5 77.25 C-38.61657016 76.63507075 -46.12335749 74.91416582 -53.1875 69 C-62.16175012 58.32791878 -62.84759703 48.57687984 -62.8125 34.875 C-62.82861328 33.62460938 -62.84472656 32.37421875 -62.86132812 31.0859375 C-62.86669828 20.81820771 -62.01208412 11.1068545 -55.21875 2.96484375 C-41.60108285 -10.62187416 -15.34595123 -10.45925168 0 0 Z M-35.5 17.25 C-38.9073045 22.51863281 -37.86892183 29.15491709 -37.875 35.1875 C-37.89949219 36.46302734 -37.92398438 37.73855469 -37.94921875 39.05273438 C-37.95308594 40.28185547 -37.95695312 41.51097656 -37.9609375 42.77734375 C-37.96915527 43.89874756 -37.97737305 45.02015137 -37.98583984 46.17553711 C-37.39469658 49.91637488 -36.11231198 51.56071214 -33.5 54.25 C-29.55979623 56.22010188 -24.79521966 55.7024546 -20.5 55.25 C-17.56018931 53.60370602 -15.9862835 52.68106288 -14.89331055 49.46459961 C-14.03748878 44.64575462 -14.31526766 39.69189062 -14.3125 34.8125 C-14.29413086 33.11383789 -14.29413086 33.11383789 -14.27539062 31.38085938 C-14.27345703 30.28708984 -14.27152344 29.19332031 -14.26953125 28.06640625 C-14.26542236 27.07068604 -14.26131348 26.07496582 -14.25708008 25.04907227 C-14.61143151 20.96601783 -15.45581421 18.16761781 -18.5625 15.4375 C-24.3807643 13.08543571 -30.55200462 13.05170089 -35.5 17.25 Z " fill="#3A3A3A" transform="translate(124.5,41.75)"/>
<path d="M0 0 C-0.30859025 2.77132017 -0.6217033 5.54199986 -0.9375 8.3125 C-1.02451172 9.09818359 -1.11152344 9.88386719 -1.20117188 10.69335938 C-1.28818359 11.45068359 -1.37519531 12.20800781 -1.46484375 12.98828125 C-1.543396 13.68477783 -1.62194824 14.38127441 -1.70288086 15.09887695 C-2 17 -2 17 -3 20 C-8.28 20 -13.56 20 -19 20 C-19.33 24.95 -19.66 29.9 -20 35 C-14.39 35 -8.78 35 -3 35 C-2.92297013 41.7786287 -2.8639288 48.30980296 -4 55 C-4.33 55.33 -4.66 55.66 -5 56 C-9.95 56 -14.9 56 -20 56 C-20 75.14 -20 94.28 -20 114 C-28.25 114 -36.5 114 -45 114 C-45 94.86 -45 75.72 -45 56 C-48.96 56 -52.92 56 -57 56 C-57 49.07 -57 42.14 -57 35 C-53.04 35 -49.08 35 -45 35 C-45.04640625 33.81664062 -45.0928125 32.63328125 -45.140625 31.4140625 C-45.65934619 12.77165695 -45.65934619 12.77165695 -39.52734375 5.17578125 C-29.36750072 -4.74387636 -12.68074793 -3.55950819 0 0 Z " fill="#059DF8" transform="translate(290,3)"/>
<path d="M0 0 C0 38.28 0 76.56 0 116 C-8.25 116 -16.5 116 -25 116 C-25 79.04 -25 42.08 -25 4 C-20.08077499 2.59450714 -15.80793326 1.56139541 -10.8125 0.875 C-9.62269531 0.70742188 -8.43289063 0.53984375 -7.20703125 0.3671875 C-4 0 -4 0 0 0 Z " fill="#089DF5" transform="translate(325,1)"/>
<path d="M0 0 C0.33 0 0.66 0 1 0 C1.02887236 3.81248426 1.04675492 7.6249407 1.0625 11.4375 C1.07087891 12.52611328 1.07925781 13.61472656 1.08789062 14.73632812 C1.09111328 15.77080078 1.09433594 16.80527344 1.09765625 17.87109375 C1.10289307 18.82943115 1.10812988 19.78776855 1.11352539 20.77514648 C1 23 1 23 0 24 C-3.33618231 24.14257189 -6.65975606 24.04228157 -10 24 C-10.33 29.61 -10.66 35.22 -11 41 C-7.37 41 -3.74 41 0 41 C0 60.47 0 79.94 0 100 C7.59 100 15.18 100 23 100 C23 81.52 23 63.04 23 44 C23.33 44 23.66 44 24 44 C24 62.81 24 81.62 24 101 C15.75 101 7.5 101 -1 101 C-1 81.86 -1 62.72 -1 43 C-4.96 43 -8.92 43 -13 43 C-13 36.07 -13 29.14 -13 22 C-9.04 22 -5.08 22 -1 22 C-1.01160156 20.74703125 -1.02320313 19.4940625 -1.03515625 18.203125 C-1.04453716 16.55208483 -1.05363704 14.90104304 -1.0625 13.25 C-1.07087891 12.425 -1.07925781 11.6 -1.08789062 10.75 C-1.09111328 9.95078125 -1.09433594 9.1515625 -1.09765625 8.328125 C-1.10289307 7.5949707 -1.10812988 6.86181641 -1.11352539 6.10644531 C-0.9975109 3.9538151 -0.59073271 2.0685865 0 0 Z " fill="#3897CE" transform="translate(246,16)"/>
<path d="M0 0 C1.125 1.5 1.125 1.5 2 4 C1.57598348 6.7773082 0.81108065 9.29639783 0 12 C0.99 10.68 1.98 9.36 3 8 C3.0867982 11.79152334 3.14032207 15.58279296 3.1875 19.375 C3.21263672 20.45523438 3.23777344 21.53546875 3.26367188 22.6484375 C3.27817383 24.1953125 3.27817383 24.1953125 3.29296875 25.7734375 C3.31653442 27.20308838 3.31653442 27.20308838 3.34057617 28.66162109 C3.22818604 29.43328613 3.1157959 30.20495117 3 31 C2.01 31.66 1.02 32.32 0 33 C-0.72382467 35.05925139 -0.72382467 35.05925139 -1 37 C-1.99 37 -2.98 37 -4 37 C-4.33 37.66 -4.66 38.32 -5 39 C-7.56520395 26.28849829 -7.56520395 14.71150171 -5 2 C-4.34 3.32 -3.68 4.64 -3 6 C-2.690625 5.195625 -2.38125 4.39125 -2.0625 3.5625 C-1 1 -1 1 0 0 Z " fill="#3F3F3F" transform="translate(435,63)"/>
<path d="M0 0 C1.3655834 2.7311668 0.6455618 3.80230486 -0.24755859 6.69335938 C-0.69329727 8.15497498 -0.69329727 8.15497498 -1.14804077 9.64611816 C-1.47817169 10.70133667 -1.80830261 11.75655518 -2.1484375 12.84375 C-2.48042145 13.92378296 -2.8124054 15.00381592 -3.15444946 16.11657715 C-3.85899649 18.40412918 -4.56705639 20.69060174 -5.27832031 22.97607422 C-6.36976785 26.48318769 -7.45148167 29.9931814 -8.53125 33.50390625 C-9.21558093 35.72152857 -9.90045849 37.93898229 -10.5859375 40.15625 C-10.91201996 41.21146851 -11.23810242 42.26668701 -11.57406616 43.35388184 C-12.02926132 44.81549744 -12.02926132 44.81549744 -12.49365234 46.30664062 C-12.76092133 47.16664673 -13.02819031 48.02665283 -13.30355835 48.91271973 C-14 51 -14 51 -15 53 C-22.59 53 -30.18 53 -38 53 C-39.40907283 50.18185434 -38.50872691 48.82722796 -37.5625 45.875 C-37.13130859 44.50988281 -37.13130859 44.50988281 -36.69140625 43.1171875 C-36.46324219 42.41851562 -36.23507812 41.71984375 -36 41 C-35.67 41.66 -35.34 42.32 -35 43 C-34.01 43 -33.02 43 -32 43 C-32 44.32 -32 45.64 -32 47 C-31.34 47 -30.68 47 -30 47 C-30 48.32 -30 49.64 -30 51 C-25.38 51 -20.76 51 -16 51 C-16 49.02 -16 47.04 -16 45 C-15.67 44.34 -15.34 43.68 -15 43 C-14.34 43 -13.68 43 -13 43 C-12.91363281 42.46375 -12.82726562 41.9275 -12.73828125 41.375 C-11.61740265 35.12275975 -9.84739201 29.16603243 -7.89892578 23.1328125 C-5.88769009 16.82844843 -4.36423625 10.47734936 -3 4 C-2.34 4 -1.68 4 -1 4 C-0.67 2.68 -0.34 1.36 0 0 Z " fill="#1A9AE5" transform="translate(396,96)"/>
<path d="M0 0 C0.33 0 0.66 0 1 0 C1 17.49 1 34.98 1 53 C7.6 52.67 14.2 52.34 21 52 C21.33 52.66 21.66 53.32 22 54 C19.11734851 54.96088383 17.32337729 55.11670941 14.33203125 55.09765625 C13.43935547 55.09443359 12.54667969 55.09121094 11.62695312 55.08789062 C10.23379883 55.07532227 10.23379883 55.07532227 8.8125 55.0625 C7.40194336 55.05573242 7.40194336 55.05573242 5.96289062 55.04882812 C3.64186288 55.03704626 1.32096356 55.02059558 -1 55 C-1.02526605 47.32788798 -1.04283123 39.6557866 -1.05493164 31.98364258 C-1.05997377 29.37133381 -1.06680725 26.75902789 -1.07543945 24.14672852 C-1.08751036 20.40119732 -1.09322935 16.65570328 -1.09765625 12.91015625 C-1.10281754 11.73413345 -1.10797882 10.55811066 -1.11329651 9.34645081 C-1.11340981 7.72488319 -1.11340981 7.72488319 -1.11352539 6.07055664 C-1.115746 5.11347305 -1.11796661 4.15638947 -1.12025452 3.17030334 C-1 1 -1 1 0 0 Z " fill="#2F2F2F" transform="translate(198,62)"/>
<path d="M0 0 C0.66 0.66 1.32 1.32 2 2 C1.01 2.66 0.02 3.32 -1 4 C-0.01 4.33 0.98 4.66 2 5 C1.49210937 5.4125 0.98421875 5.825 0.4609375 6.25 C-4.47174514 10.38828057 -8.36104788 14.69319483 -12 20 C-12.33 19.34 -12.66 18.68 -13 18 C-13.66 18 -14.32 18 -15 18 C-15 18.66 -15 19.32 -15 20 C-17 20 -17 20 -18.625 18.5 C-19.07875 18.005 -19.5325 17.51 -20 17 C-18.55575365 13.76138697 -16.74227753 11.38030837 -14.375 8.75 C-13.74335938 8.04359375 -13.11171875 7.3371875 -12.4609375 6.609375 C-11.97882813 6.07828125 -11.49671875 5.5471875 -11 5 C-10.34 5.33 -9.68 5.66 -9 6 C-10.98 8.31 -12.96 10.62 -15 13 C-14.34 13 -13.68 13 -13 13 C-12.67 12.01 -12.34 11.02 -12 10 C-11.360625 9.690625 -10.72125 9.38125 -10.0625 9.0625 C-7.85695641 8.19247652 -7.85695641 8.19247652 -7.125 6.125 C-5.48177754 3.02113536 -2.94574515 1.79306226 0 0 Z " fill="#3C3C3C" transform="translate(462,26)"/>
<path d="M0 0 C8.25 0 16.5 0 25 0 C25.33 1.65 25.66 3.3 26 5 C25.34 5 24.68 5 24 5 C24 3.68 24 2.36 24 1 C19.05 1 14.1 1 9 1 C9.33 2.65 9.66 4.3 10 6 C9.01 7.485 9.01 7.485 8 9 C6.68 8.34 5.36 7.68 4 7 C4.19335938 7.64066406 4.38671875 8.28132813 4.5859375 8.94140625 C6.09409183 13.95116641 7.5626876 18.9694066 9 24 C9.26039063 24.81726563 9.52078125 25.63453125 9.7890625 26.4765625 C10.06492187 27.35054687 10.34078125 28.22453125 10.625 29.125 C10.88539063 29.93195313 11.14578125 30.73890625 11.4140625 31.5703125 C12.03171479 34.13151068 12.10274083 36.37543878 12 39 C10.02072053 35.40765885 8.83010709 31.61350549 7.6171875 27.71484375 C7.39805695 27.01734512 7.17892639 26.3198465 6.95315552 25.60121155 C6.49261445 24.13172967 6.03381727 22.66170025 5.57666016 21.19116211 C4.87580038 18.94007073 4.16676451 16.69166664 3.45703125 14.44335938 C3.0099206 13.01317582 2.5632895 11.58284224 2.1171875 10.15234375 C1.90472382 9.48041489 1.69226013 8.80848602 1.47335815 8.11619568 C0.60021904 5.28826241 0 2.98016977 0 0 Z " fill="#149DEE" transform="translate(335,37)"/>
<path d="M0 0 C0.33 0 0.66 0 1 0 C1.02887236 3.81248426 1.04675492 7.6249407 1.0625 11.4375 C1.07087891 12.52611328 1.07925781 13.61472656 1.08789062 14.73632812 C1.09111328 15.77080078 1.09433594 16.80527344 1.09765625 17.87109375 C1.10289307 18.82943115 1.10812988 19.78776855 1.11352539 20.77514648 C1 23 1 23 0 24 C-3.33618231 24.14257189 -6.65975606 24.04228157 -10 24 C-10.33 29.61 -10.66 35.22 -11 41 C-7.37 41 -3.74 41 0 41 C-0.33 41.99 -0.66 42.98 -1 44 C-4.96 43.67 -8.92 43.34 -13 43 C-13 36.07 -13 29.14 -13 22 C-9.04 22 -5.08 22 -1 22 C-1.01160156 20.74703125 -1.02320313 19.4940625 -1.03515625 18.203125 C-1.04453716 16.55208483 -1.05363704 14.90104304 -1.0625 13.25 C-1.07087891 12.425 -1.07925781 11.6 -1.08789062 10.75 C-1.09111328 9.95078125 -1.09433594 9.1515625 -1.09765625 8.328125 C-1.10289307 7.5949707 -1.10812988 6.86181641 -1.11352539 6.10644531 C-0.9975109 3.9538151 -0.59073271 2.0685865 0 0 Z " fill="#339DDF" transform="translate(246,16)"/>
<path d="M0 0 C0.33 0 0.66 0 1 0 C1 2.31 1 4.62 1 7 C1.99 7.33 2.98 7.66 4 8 C4.42020731 12.28611459 4.58944967 14.27581898 1.8125 17.6875 C-3.8125 22.3125 -3.8125 22.3125 -6 24 C-6.556875 23.71125 -7.11375 23.4225 -7.6875 23.125 C-10.08494645 21.9586747 -12.51596939 20.9660119 -15 20 C-15 19.34 -15 18.68 -15 18 C-14.44828125 18.21527344 -13.8965625 18.43054688 -13.328125 18.65234375 C-10.12723004 19.13032974 -8.56778502 18.08262086 -5.75 16.5625 C-4.85796875 16.08941406 -3.9659375 15.61632812 -3.046875 15.12890625 C-2.03367187 14.57009766 -2.03367187 14.57009766 -1 14 C-1.16113281 13.42507812 -1.32226562 12.85015625 -1.48828125 12.2578125 C-2.28521351 8.74157705 -2.17452076 5.60676234 -2 2 C-1.34 1.34 -0.68 0.68 0 0 Z " fill="#343434" transform="translate(477,96)"/>
<path d="M0 0 C1.15518918 0.90484792 2.29885406 1.8244206 3.4375 2.75 C4.07558594 3.26046875 4.71367187 3.7709375 5.37109375 4.296875 C7.21752131 6.22743235 7.46335846 7.43662488 8 10 C8.66 10.66 9.32 11.32 10 12 C9.67 10.35 9.34 8.7 9 7 C12.88397689 8.55002747 15.02979619 11.00476621 17.75 14.125 C18.54921875 15.03507813 19.3484375 15.94515625 20.171875 16.8828125 C20.77515625 17.58148438 21.3784375 18.28015625 22 19 C21.34 19.66 20.68 20.32 20 21 C15.00584679 21 13.2837184 20.25702061 9.74609375 16.79296875 C8.98425781 15.93316406 8.22242188 15.07335937 7.4375 14.1875 C6.67308594 13.33542969 5.90867187 12.48335937 5.12109375 11.60546875 C1.8328251 7.56628792 0 5.30626053 0 0 Z " fill="#323232" transform="translate(438,116)"/>
<path d="M0 0 C-1.1875 2 -1.1875 2 -3 4 C-5.6875 4.25 -5.6875 4.25 -8 4 C-7.67 4.99 -7.34 5.98 -7 7 C-7.99 7.33 -8.98 7.66 -10 8 C-10 7.34 -10 6.68 -10 6 C-11.98 6 -13.96 6 -16 6 C-16.76173392 10.3164922 -17.16063604 13.74433453 -16 18 C-16.66 18.33 -17.32 18.66 -18 19 C-18.66 16.69 -19.32 14.38 -20 12 C-21.32 12.33 -22.64 12.66 -24 13 C-24 10 -24 10 -22 7.625 C-19.78244593 4.71446029 -19.59413354 3.5513315 -20 0 C-19.34 0 -18.68 0 -18 0 C-18 0.99 -18 1.98 -18 3 C-16.42798828 2.54947266 -16.42798828 2.54947266 -14.82421875 2.08984375 C-13.44543621 1.70528535 -12.06652303 1.32119511 -10.6875 0.9375 C-9.65206055 0.63875977 -9.65206055 0.63875977 -8.59570312 0.33398438 C-3.33984375 -1.11328125 -3.33984375 -1.11328125 0 0 Z " fill="#3A3A3A" transform="translate(500,104)"/>
<path d="M0 0 C0.33 0 0.66 0 1 0 C1.54881306 9.31457719 0.59492885 17.32756216 -3 26 C-3.66 26.66 -4.32 27.32 -5 28 C-5.98120464 24.94736336 -5.98120464 23.05263664 -5 20 C-5.33 20.66 -5.66 21.32 -6 22 C-6.66 22 -7.32 22 -8 22 C-7.125 14.25 -7.125 14.25 -6 12 C-5.34 12 -4.68 12 -4 12 C-4 12.99 -4 13.98 -4 15 C-3.34 15 -2.68 15 -2 15 C-2.33 14.443125 -2.66 13.88625 -3 13.3125 C-4.62060802 9.56484396 -4.27335281 6.82005844 -3 3 C-2.34 3 -1.68 3 -1 3 C-0.67 2.01 -0.34 1.02 0 0 Z " fill="#323232" transform="translate(557,80)"/>
<path d="M0 0 C3.5087884 3.84295873 6 9.74687196 6 15 C5.34 15 4.68 15 4 15 C4.061875 15.9075 4.12375 16.815 4.1875 17.75 C3.98327924 21.28982642 3.35448165 22.44931155 1 25 C0.34 24.67 -0.32 24.34 -1 24 C-0.938125 23.071875 -0.87625 22.14375 -0.8125 21.1875 C-0.7799613 15.91623039 -2.48093937 11.00024125 -4 6 C-2.35 6 -0.7 6 1 6 C0.67 4.02 0.34 2.04 0 0 Z " fill="#404040" transform="translate(551,56)"/>
<path d="M0 0 C0.99 0 1.98 0 3 0 C4.46230215 2.92460429 4.20908727 5.55652824 4.25 8.8125 C4.27578125 10.03582031 4.3015625 11.25914063 4.328125 12.51953125 C3.97702508 16.24369827 3.0953663 17.96806846 1 21 C0.67 21.99 0.34 22.98 0 24 C-1.61686074 22.38313926 -1.12989349 20.6092385 -1.1328125 18.37890625 C-1.13410156 17.44369141 -1.13539063 16.50847656 -1.13671875 15.54492188 C-1.13285156 14.56072266 -1.12898438 13.57652344 -1.125 12.5625 C-1.12886719 11.58216797 -1.13273437 10.60183594 -1.13671875 9.59179688 C-1.13542969 8.65529297 -1.13414062 7.71878906 -1.1328125 6.75390625 C-1.13168457 5.89095947 -1.13055664 5.0280127 -1.12939453 4.13891602 C-1 2 -1 2 0 0 Z M-6 23 C-4.35 23 -2.7 23 -1 23 C-1 23.66 -1 24.32 -1 25 C-2.98 25 -4.96 25 -7 25 C-6.67 24.34 -6.34 23.68 -6 23 Z " fill="#343434" transform="translate(501,34)"/>
<path d="M0 0 C-3.07517084 11.52164009 -3.07517084 11.52164009 -5 17 C-5.33 17 -5.66 17 -6 17 C-5.85930804 14.87465341 -5.71229079 12.74972471 -5.5625 10.625 C-5.48128906 9.44164062 -5.40007812 8.25828125 -5.31640625 7.0390625 C-5 4 -5 4 -4 2 C-10.93 2 -17.86 2 -25 2 C-25 3.65 -25 5.3 -25 7 C-25.99 7.495 -25.99 7.495 -27 8 C-26.125 1.125 -26.125 1.125 -25 0 C-21.20054187 -0.38320261 -17.37735217 -0.47012839 -13.5625 -0.625 C-12.48677734 -0.6765625 -11.41105469 -0.728125 -10.30273438 -0.78125 C-9.27599609 -0.82507812 -8.24925781 -0.86890625 -7.19140625 -0.9140625 C-6.24467041 -0.9548291 -5.29793457 -0.9955957 -4.32250977 -1.03759766 C-2 -1 -2 -1 0 0 Z " fill="#2099E4" transform="translate(416,37)"/>
<path d="M0 0 C1.36970515 2.73941029 0.63595091 3.82627392 -0.26342773 6.72509766 C-0.71400795 8.19639633 -0.71400795 8.19639633 -1.1736908 9.69741821 C-1.50695877 10.75891083 -1.84022675 11.82040344 -2.18359375 12.9140625 C-2.51794937 13.99883881 -2.85230499 15.08361511 -3.1967926 16.20126343 C-4.27015452 19.67801215 -5.35370571 23.1514908 -6.4375 26.625 C-7.16538499 28.97635475 -7.89260732 31.32791475 -8.61914062 33.6796875 C-10.40506751 39.45553178 -12.19937815 45.22872111 -14 51 C-14.33 51 -14.66 51 -15 51 C-14.43162643 44.92117536 -13.07260494 39.58449282 -11.125 33.8125 C-8.94184633 27.14362748 -7.07085217 20.5531198 -5.58984375 13.69140625 C-4.87042935 10.4087803 -3.97213973 7.21553911 -3 4 C-2.34 4 -1.68 4 -1 4 C-0.67 2.68 -0.34 1.36 0 0 Z " fill="#3FA2E2" transform="translate(396,96)"/>
<path d="M0 0 C2.31 0.33 4.62 0.66 7 1 C6.34 1.66 5.68 2.32 5 3 C5.99 3.33 6.98 3.66 8 4 C8 4.66 8 5.32 8 6 C10.31 6.66 12.62 7.32 15 8 C14.071875 8.12375 14.071875 8.12375 13.125 8.25 C10.85416667 8.8125 10.85416667 8.8125 9.75 10.875 C8.83358994 13.09591691 8.83358994 13.09591691 9 16 C8.34 16 7.68 16 7 16 C3.3956321 11.16230728 0.32301201 6.13722814 0 0 Z M5 6 C5 6.66 5 7.32 5 8 C5.99 7.67 6.98 7.34 8 7 C7.01 6.67 6.02 6.34 5 6 Z " fill="#323232" transform="translate(514,31)"/>
<path d="M0 0 C5.6143991 1.56448671 10.86810338 3.16395187 16 6 C15.67 7.32 15.34 8.64 15 10 C10.28596212 9.52060632 6.33420699 9.03165952 2 7 C2.33 6.01 2.66 5.02 3 4 C2.01 3.34 1.02 2.68 0 2 C0 1.34 0 0.68 0 0 Z " fill="#393939" transform="translate(546,22)"/>
<path d="M0 0 C0.33 0 0.66 0 1 0 C1 1.98 1 3.96 1 6 C0.67 6 0.34 6 0 6 C0 4.02 0 2.04 0 0 Z M-12 4 C-10.56163249 4.11458693 -9.12429034 4.24209116 -7.6875 4.375 C-6.48673828 4.47941406 -6.48673828 4.47941406 -5.26171875 4.5859375 C-3 5 -3 5 0 7 C0.1875 9.625 0.1875 9.625 0 12 C-1.98 12.99 -1.98 12.99 -4 14 C-4 13.34 -4 12.68 -4 12 C-5.134375 11.608125 -6.26875 11.21625 -7.4375 10.8125 C-11 9 -11 9 -11.9375 6.3125 C-11.958125 5.549375 -11.97875 4.78625 -12 4 Z " fill="#363636" transform="translate(536,13)"/>
<path d="M0 0 C1.65 0 3.3 0 5 0 C7.72508509 3.28889579 8.36146791 5.78287443 8 10 C7.236875 10.0825 6.47375 10.165 5.6875 10.25 C2.47635534 10.8519739 2.47635534 10.8519739 0 15 C0 10.05 0 5.1 0 0 Z " fill="#484848" transform="translate(534,0)"/>
<path d="M0 0 C1.9375 0.3125 1.9375 0.3125 4 1 C4.96088383 3.88265149 5.11670941 5.67662271 5.09765625 8.66796875 C5.09443359 9.56064453 5.09121094 10.45332031 5.08789062 11.37304688 C5.07951172 12.30181641 5.07113281 13.23058594 5.0625 14.1875 C5.05798828 15.12787109 5.05347656 16.06824219 5.04882812 17.03710938 C5.03704626 19.35813712 5.02059558 21.67903644 5 24 C4.67 24 4.34 24 4 24 C3.30739642 17.96445452 2.88748267 12.07593562 3 6 C2.34 6.66 1.68 7.32 1 8 C0.67 7.34 0.34 6.68 0 6 C-0.33 12.93 -0.66 19.86 -1 27 C-1.33 27 -1.66 27 -2 27 C-2.33 19.74 -2.66 12.48 -3 5 C-3.66 5 -4.32 5 -5 5 C-5 4.34 -5 3.68 -5 3 C-3.68 3 -2.36 3 -1 3 C-0.67 2.01 -0.34 1.02 0 0 Z " fill="#505050" transform="translate(501,30)"/>
<path d="M0 0 C3 1 3 1 6 3 C8.04869074 3.44429438 10.11454293 3.81294195 12.1875 4.125 C13.27417969 4.29257812 14.36085938 4.46015625 15.48046875 4.6328125 C16.72763672 4.81457031 16.72763672 4.81457031 18 5 C18 5.66 18 6.32 18 7 C12.72 7 7.44 7 2 7 C1.67 11.95 1.34 16.9 1 22 C0.67 22 0.34 22 0 22 C-0.16798051 19.72926348 -0.33434113 17.45840707 -0.5 15.1875 C-0.5928125 13.92292969 -0.685625 12.65835937 -0.78125 11.35546875 C-1.04507632 7.3085614 -0.85411556 3.95028447 0 0 Z " fill="#199DF0" transform="translate(269,16)"/>
<path d="M0 0 C3.625 -0.1875 3.625 -0.1875 7 0 C6 3 6 3 3.9375 4.1875 C3.298125 4.455625 2.65875 4.72375 2 5 C2.33 5.66 2.66 6.32 3 7 C3.04254356 8.99954746 3.04080783 11.00041636 3 13 C3 13.99 3 14.98 3 16 C3 16.99 3 17.98 3 19 C2.34 19 1.68 19 1 19 C-1.02280109 13.87557056 -2.11400391 8.51968934 -2 3 C-1.34 2.01 -0.68 1.02 0 0 Z " fill="#333333" transform="translate(484,109)"/>
<path d="M0 0 C0.33 0 0.66 0 1 0 C0.98839844 0.60328125 0.97679687 1.2065625 0.96484375 1.828125 C0.95582031 2.62734375 0.94679688 3.4265625 0.9375 4.25 C0.92589844 5.03890625 0.91429687 5.8278125 0.90234375 6.640625 C0.99614694 8.90691002 1.36758937 10.8288895 2 13 C1.01 12.67 0.02 12.34 -1 12 C-1.13277344 12.71027344 -1.26554687 13.42054687 -1.40234375 14.15234375 C-1.66724609 15.53099609 -1.66724609 15.53099609 -1.9375 16.9375 C-2.11152344 17.85402344 -2.28554688 18.77054688 -2.46484375 19.71484375 C-3 22 -3 22 -4 23 C-4.07148199 24.35243917 -4.08399454 25.70834367 -4.0625 27.0625 C-4.041875 28.361875 -4.02125 29.66125 -4 31 C-5.32 30.67 -6.64 30.34 -8 30 C-6.72977021 22.96735667 -4.98783682 16.19875528 -2.875 9.375 C-2.59785156 8.46621094 -2.32070313 7.55742188 -2.03515625 6.62109375 C-1.36102123 4.41272041 -0.68260023 2.20576837 0 0 Z " fill="#30A1E4" transform="translate(388,45)"/>
<path d="M0 0 C7.59 0.33 15.18 0.66 23 1 C22.67 1.99 22.34 2.98 22 4 C19.2697611 4.1083667 16.54385457 4.18746694 13.8125 4.25 C13.04357422 4.28351563 12.27464844 4.31703125 11.48242188 4.3515625 C10.73154297 4.36445313 9.98066406 4.37734375 9.20703125 4.390625 C8.5210083 4.41157227 7.83498535 4.43251953 7.12817383 4.45410156 C5 4 5 4 0 0 Z " fill="#343434" transform="translate(489,135)"/>
<path d="M0 0 C-0.98742187 0.67546875 -1.97484375 1.3509375 -2.9921875 2.046875 C-4.28677689 2.94745892 -5.58103027 3.84852598 -6.875 4.75 C-7.85146484 5.41515625 -7.85146484 5.41515625 -8.84765625 6.09375 C-12.24720811 8.47694099 -14.33318914 10.1049262 -16 14 C-16.99 14.33 -17.98 14.66 -19 15 C-19.33 15.66 -19.66 16.32 -20 17 C-20.66 17 -21.32 17 -22 17 C-18.68308998 9.61233678 -12.61452467 3.95050527 -5.859375 -0.3203125 C-3.52754259 -1.17270502 -2.33933836 -0.67366638 0 0 Z " fill="#333333" transform="translate(469,22)"/>
<path d="M0 0 C-2.39509338 2.89932357 -4.31245243 3.50168276 -8 4 C-8 3.01 -8 2.02 -8 1 C-8.99 1.33 -9.98 1.66 -11 2 C-11.33 1.67 -11.66 1.34 -12 1 C-12.33 1.66 -12.66 2.32 -13 3 C-14.32 3 -15.64 3 -17 3 C-17 3.66 -17 4.32 -17 5 C-17.99 4.67 -18.98 4.34 -20 4 C-19.34 4 -18.68 4 -18 4 C-18 3.34 -18 2.68 -18 2 C-18.99 1.34 -19.98 0.68 -21 0 C-6.21867882 -2.66514806 -6.21867882 -2.66514806 0 0 Z " fill="#303030" transform="translate(513,30)"/>
<path d="M0 0 C11.385 0.99 11.385 0.99 23 2 C23 2.66 23 3.32 23 4 C19.77085248 4.02917228 16.54173917 4.04685663 13.3125 4.0625 C11.94448242 4.07506836 11.94448242 4.07506836 10.54882812 4.08789062 C9.66259766 4.09111328 8.77636719 4.09433594 7.86328125 4.09765625 C7.05157471 4.10289307 6.23986816 4.10812988 5.40356445 4.11352539 C2.85135327 3.9929791 0.48973863 3.559949 -2 3 C-1.34 2.01 -0.68 1.02 0 0 Z " fill="#3D3D3D" transform="translate(485,150)"/>
<path d="M0 0 C3.77563868 3.10441402 4.12010183 6.8175938 5.15625 11.40625 C5.79192465 14.03983315 5.79192465 14.03983315 7.61328125 15.58203125 C9 17 9 17 9.07421875 19.04296875 C8.71614583 21.02864583 8.35807292 23.01432292 8 25 C6.25406542 22.38109813 5.4206896 20.59019243 4.4921875 17.65625 C4.22792969 16.82222656 3.96367187 15.98820312 3.69140625 15.12890625 C3.42199219 14.26136719 3.15257812 13.39382812 2.875 12.5 C2.59785156 11.63246094 2.32070313 10.76492187 2.03515625 9.87109375 C0 3.38465979 0 3.38465979 0 0 Z " fill="#38A1E9" transform="translate(347,76)"/>
<path d="M0 0 C5.10890435 5.10890435 6.5134514 13.47728215 8.25 20.3125 C8.51272705 21.334646 8.51272705 21.334646 8.78076172 22.37744141 C9.66211707 25.98718182 10.20129553 29.28322187 10 33 C7.21158367 27.78586296 5.66970911 22.11242955 3.875 16.5 C3.50246094 15.35917969 3.12992187 14.21835937 2.74609375 13.04296875 C2.39417969 11.94597656 2.04226563 10.84898438 1.6796875 9.71875 C1.19604736 8.21731445 1.19604736 8.21731445 0.70263672 6.68554688 C0 4 0 4 0 0 Z " fill="#38A3E5" transform="translate(337,43)"/>
<path d="M0 0 C2 1 2 1 2.71484375 2.734375 C3.07550916 5.59993577 2.46183383 7.51602516 1.5625 10.25 C1.27503906 11.14203125 0.98757813 12.0340625 0.69140625 12.953125 C0.46324219 13.62859375 0.23507812 14.3040625 0 15 C-1.09658936 11.71023192 -0.79953138 10.28696233 0 7 C-1.32 7.33 -2.64 7.66 -4 8 C-4 6.02 -4 4.04 -4 2 C-2.125 0.9375 -2.125 0.9375 0 0 Z " fill="#444444" transform="translate(530,91)"/>
<path d="M0 0 C0.33 0 0.66 0 1 0 C2.57793673 4.14208392 3.57888176 7.56190648 3 12 C1 14.375 1 14.375 -1 16 C-1 15.01 -1 14.02 -1 13 C-1.66 13 -2.32 13 -3 13 C-3.46192125 8.07284004 -1.8275283 4.49267375 0 0 Z " fill="#313131" transform="translate(476,63)"/>
<path d="M0 0 C0.66 0.33 1.32 0.66 2 1 C0.7934375 2.0828125 0.7934375 2.0828125 -0.4375 3.1875 C-3.02292072 6.02515689 -3.68042813 7.27166147 -4 11 C-2.35 11 -0.7 11 1 11 C0.34 12.32 -0.32 13.64 -1 15 C-1.33 14.34 -1.66 13.68 -2 13 C-2.66 13 -3.32 13 -4 13 C-4 13.66 -4 14.32 -4 15 C-6 15 -6 15 -7.625 13.5 C-8.07875 13.005 -8.5325 12.51 -9 12 C-7.55575365 8.76138697 -5.74227753 6.38030837 -3.375 3.75 C-2.74335938 3.04359375 -2.11171875 2.3371875 -1.4609375 1.609375 C-0.97882813 1.07828125 -0.49671875 0.5471875 0 0 Z " fill="#454545" transform="translate(451,31)"/>
<path d="M0 0 C0.66 1.32 1.32 2.64 2 4 C2.66 3.67 3.32 3.34 4 3 C4 4.32 4 5.64 4 7 C3.34 7 2.68 7 2 7 C2.33 11.95 2.66 16.9 3 22 C2.34 22 1.68 22 1 22 C-0.17700048 17.37540756 -0.11408412 12.92133538 -0.0625 8.1875 C-0.05573242 7.00510742 -0.05573242 7.00510742 -0.04882812 5.79882812 C-0.03711312 3.86585239 -0.01917998 1.93291607 0 0 Z " fill="#3F3F3F" transform="translate(447,75)"/>
<path d="M0 0 C1.32 0 2.64 0 4 0 C4.33 2.31 4.66 4.62 5 7 C3.68 7.33 2.36 7.66 1 8 C1 8.66 1 9.32 1 10 C0.34 10 -0.32 10 -1 10 C-2.25 3.375 -2.25 3.375 0 0 Z " fill="#454545" transform="translate(528,67)"/>
<path d="M0 0 C0.66 0.33 1.32 0.66 2 1 C1.46375 1.556875 0.9275 2.11375 0.375 2.6875 C-0.07875 3.450625 -0.5325 4.21375 -1 5 C-0.37943989 6.68437744 0.29289322 8.35008418 1 10 C0.625 13.3125 0.625 13.3125 0 16 C-1.32 16.33 -2.64 16.66 -4 17 C-3.814375 15.80375 -3.62875 14.6075 -3.4375 13.375 C-2.9688803 9.71716293 -3.18518987 6.62137834 -4 3 C-2.68 2.01 -1.36 1.02 0 0 Z " fill="#333333" transform="translate(530,53)"/>
<path d="M0 0 C0.66 0.33 1.32 0.66 2 1 C2.44807781 7.27308929 1.66866618 11.77307092 -2 17 C-2.99 17.66 -3.98 18.32 -5 19 C-5 15.69343936 -4.24500442 13.69698656 -3.0625 10.625 C-1.70330086 7.08815923 -0.64547552 3.73696351 0 0 Z " fill="#303030" transform="translate(132,89)"/>
<path d="M0 0 C0.99 0.33 1.98 0.66 3 1 C3 4.96 3 8.92 3 13 C3.66 12.67 4.32 12.34 5 12 C4.67 13.65 4.34 15.3 4 17 C2.68 17 1.36 17 0 17 C0 11.39 0 5.78 0 0 Z " fill="#333333" transform="translate(500,86)"/>
<path d="M0 0 C0.11026375 5.40292394 0.19015105 10.69841807 -1 16 C-4 18 -4 18 -7 19 C-6.34 17.68 -5.68 16.36 -5 15 C-4.34 15 -3.68 15 -3 15 C-3.185625 14.29875 -3.37125 13.5975 -3.5625 12.875 C-4.0513629 9.66247239 -3.56505684 7.17844475 -3 4 C-3.33 3.34 -3.66 2.68 -4 2 C-1 0 -1 0 0 0 Z " fill="#313131" transform="translate(530,98)"/>
<path d="M0 0 C0.66 0 1.32 0 2 0 C0.375 5.75 0.375 5.75 -3 8 C-4.20450304 10.55183404 -4.20450304 10.55183404 -5 13 C-7.72727273 8.90909091 -7.72727273 8.90909091 -8 6 C-6.5625 4.25 -6.5625 4.25 -5 3 C-4.34 3.66 -3.68 4.32 -3 5 C-2.54625 4.175 -2.0925 3.35 -1.625 2.5 C-1.08875 1.675 -0.5525 0.85 0 0 Z " fill="#303030" transform="translate(488,42)"/>
<path d="M0 0 C-1.1875 2 -1.1875 2 -3 4 C-5.6875 4.25 -5.6875 4.25 -8 4 C-7.67 4.99 -7.34 5.98 -7 7 C-7.99 7.33 -8.98 7.66 -10 8 C-10 6.02 -10 4.04 -10 2 C-10.66 1.67 -11.32 1.34 -12 1 C-10.56496445 0.63597631 -9.12683494 0.28413409 -7.6875 -0.0625 C-6.88699219 -0.25972656 -6.08648437 -0.45695312 -5.26171875 -0.66015625 C-3 -1 -3 -1 0 0 Z " fill="#474747" transform="translate(500,104)"/>
<path d="M0 0 C1.25720899 2.51441797 1.97553031 4.85318185 2.4375 7.625 C2.623125 8.40875 2.80875 9.1925 3 10 C3.66 10.33 4.32 10.66 5 11 C4.34 11 3.68 11 3 11 C2.67 11.66 2.34 12.32 2 13 C1.67 12.01 1.34 11.02 1 10 C-0.65 10 -2.3 10 -4 10 C-3.52449439 8.51965236 -3.04448784 7.04074979 -2.5625 5.5625 C-2.29566406 4.73878906 -2.02882813 3.91507813 -1.75390625 3.06640625 C-1 1 -1 1 0 0 Z " fill="#414141" transform="translate(436,51)"/>
<path d="M0 0 C2.00745009 2.00745009 2.77536028 3.47868292 4 6 C4.8353125 7.2684375 4.8353125 7.2684375 5.6875 8.5625 C6.120625 9.366875 6.55375 10.17125 7 11 C6.67 11.99 6.34 12.98 6 14 C6 13.34 6 12.68 6 12 C4.68 12.33 3.36 12.66 2 13 C1.47044766 11.21089097 0.9516063 9.41860852 0.4375 7.625 C0.14746094 6.62726562 -0.14257812 5.62953125 -0.44140625 4.6015625 C-1 2 -1 2 0 0 Z " fill="#3D3D3D" transform="translate(542,45)"/>
<path d="M0 0 C2.82249951 1.03491649 3.83374226 1.69915265 5.3125 4.375 C6.02770914 7.10579853 5.9659657 8.39189261 5 11 C2.64046906 8.64046906 2.50858587 7.22104383 2 4 C0.68 4.33 -0.64 4.66 -2 5 C-2 2 -2 2 0 0 Z " fill="#484848" transform="translate(478,112)"/>
<path d="M0 0 C1.65 0 3.3 0 5 0 C5.37851209 5.93002267 4.10575375 10.47239641 2 16 C1.67 16 1.34 16 1 16 C1.14069196 13.87465341 1.28770921 11.74972471 1.4375 9.625 C1.51871094 8.44164062 1.59992188 7.25828125 1.68359375 6.0390625 C2 3 2 3 3 1 C2.01 0.67 1.02 0.34 0 0 Z " fill="#1F9AE8" transform="translate(409,38)"/>
<path d="M0 0 C5.75 1.75 5.75 1.75 8 4 C7.01 4.99 6.02 5.98 5 7 C4.01 6.67 3.02 6.34 2 6 C1.01 6.495 1.01 6.495 0 7 C-0.66 6.34 -1.32 5.68 -2 5 C-1.34 4.34 -0.68 3.68 0 3 C0 2.01 0 1.02 0 0 Z " fill="#444444" transform="translate(528,110)"/>
<path d="M0 0 C1.65 0.33 3.3 0.66 5 1 C4.67 3.31 4.34 5.62 4 8 C3.34 7.01 2.68 6.02 2 5 C2 6.65 2 8.3 2 10 C1.01 9.67 0.02 9.34 -1 9 C-0.67 6.03 -0.34 3.06 0 0 Z " fill="#303030" transform="translate(473,86)"/>
<path d="M0 0 C-0.33 0.66 -0.66 1.32 -1 2 C-1.33 2.99 -1.66 3.98 -2 5 C-1.67 5.66 -1.34 6.32 -1 7 C-3.64738916 8.4606285 -4.89448334 9 -8 9 C-8 7 -8 7 -6 5 C-6 3.68 -6 2.36 -6 1 C-3 0 -3 0 0 0 Z " fill="#484848" transform="translate(479,16)"/>
<path d="M0 0 C0 0.66 0 1.32 0 2 C1.32 2.33 2.64 2.66 4 3 C4 3.66 4 4.32 4 5 C-2.75 6.125 -2.75 6.125 -5 5 C-5 3.68 -5 2.36 -5 1 C-3 0 -3 0 0 0 Z " fill="#313131" transform="translate(510,104)"/>
<path d="M0 0 C0.33 0.66 0.66 1.32 1 2 C-0.14453125 4.3125 -0.14453125 4.3125 -1.8125 7 C-2.62654297 8.3303125 -2.62654297 8.3303125 -3.45703125 9.6875 C-5 12 -5 12 -7 14 C-6.07934219 7.69280693 -5.0022542 4.08078632 0 0 Z " fill="#303030" transform="translate(443,42)"/>
<path d="M0 0 C-2.31881505 2.67901932 -4.31814468 3.66204403 -7.6875 4.6875 C-8.49574219 4.93886719 -9.30398438 5.19023438 -10.13671875 5.44921875 C-11.05904297 5.72185547 -11.05904297 5.72185547 -12 6 C-12 5.01 -12 4.02 -12 3 C-10.5682384 2.30062798 -9.12932968 1.61587282 -7.6875 0.9375 C-6.48673828 0.36322266 -6.48673828 0.36322266 -5.26171875 -0.22265625 C-3 -1 -3 -1 0 0 Z " fill="#2F2F2F" transform="translate(488,35)"/>
<path d="M0 0 C3.625 -0.1875 3.625 -0.1875 7 0 C5.68 1.32 4.36 2.64 3 4 C3.99 4.99 4.98 5.98 6 7 C3.36 6.67 0.72 6.34 -2 6 C-2 3 -2 3 0 0 Z " fill="#454545" transform="translate(491,56)"/>
<path d="M0 0 C0.33 0 0.66 0 1 0 C0.98259766 0.90492187 0.98259766 0.90492187 0.96484375 1.828125 C0.95582031 2.62734375 0.94679688 3.4265625 0.9375 4.25 C0.92589844 5.03890625 0.91429687 5.8278125 0.90234375 6.640625 C0.99614694 8.90691002 1.36758937 10.8288895 2 13 C0.68 12.67 -0.64 12.34 -2 12 C-1.85831863 10.56208484 -1.71148957 9.1246763 -1.5625 7.6875 C-1.48128906 6.88699219 -1.40007812 6.08648437 -1.31640625 5.26171875 C-1 3 -1 3 0 0 Z " fill="#219FED" transform="translate(388,45)"/>
<path d="M0 0 C2.31 0.33 4.62 0.66 7 1 C7.33 2.32 7.66 3.64 8 5 C6.35 6.32 4.7 7.64 3 9 C3.66 7.02 4.32 5.04 5 3 C3.35 2.67 1.7 2.34 0 2 C0 1.34 0 0.68 0 0 Z " fill="#2E2E2E" transform="translate(509,14)"/>
<path d="M0 0 C2.4375 0.75 2.4375 0.75 5 2 C5.8125 4.125 5.8125 4.125 6 6 C3.69 5.67 1.38 5.34 -1 5 C-0.67 3.35 -0.34 1.7 0 0 Z " fill="#313131" transform="translate(467,142)"/>
<path d="M0 0 C0.33 0 0.66 0 1 0 C1.33 2.31 1.66 4.62 2 7 C1.01 7.66 0.02 8.32 -1 9 C-2.5625 7.8125 -2.5625 7.8125 -4 6 C-3.6875 3.3125 -3.6875 3.3125 -3 1 C-2.34 1.33 -1.68 1.66 -1 2 C-0.67 1.34 -0.34 0.68 0 0 Z " fill="#303030" transform="translate(452,72)"/>
<path d="M0 0 C1.33333333 0 2.66666667 0 4 0 C4 2.31 4 4.62 4 7 C3.01 7.33 2.02 7.66 1 8 C0.67 6.35 0.34 4.7 0 3 C-0.33 3.99 -0.66 4.98 -1 6 C-1.625 4.125 -1.625 4.125 -2 2 C-1.34 1.34 -0.68 0.68 0 0 Z " fill="#303030" transform="translate(452,63)"/>
<path d="M0 0 C2.97 0.33 5.94 0.66 9 1 C9 1.99 9 2.98 9 4 C5.37 3.67 1.74 3.34 -2 3 C-1.34 2.01 -0.68 1.02 0 0 Z " fill="#444444" transform="translate(485,150)"/>
<path d="M0 0 C1.40907283 2.81814566 0.50872691 4.17277204 -0.4375 7.125 C-0.72496094 8.03507812 -1.01242187 8.94515625 -1.30859375 9.8828125 C-1.53675781 10.58148438 -1.76492188 11.28015625 -2 12 C-2.66 12 -3.32 12 -4 12 C-4.33 12.66 -4.66 13.32 -5 14 C-4.34 10.7 -3.68 7.4 -3 4 C-2.34 4 -1.68 4 -1 4 C-0.67 2.68 -0.34 1.36 0 0 Z " fill="#299CE4" transform="translate(396,96)"/>
<path d="M0 0 C0.99 0.33 1.98 0.66 3 1 C1.68 1.33 0.36 1.66 -1 2 C-0.67 1.34 -0.34 0.68 0 0 Z M-2 2 C-1.34 2.66 -0.68 3.32 0 4 C-1.65 5.32 -3.3 6.64 -5 8 C-5.99 7.34 -6.98 6.68 -8 6 C-8 5.34 -8 4.68 -8 4 C-6.7934375 3.7834375 -6.7934375 3.7834375 -5.5625 3.5625 C-3.07896294 3.25864751 -3.07896294 3.25864751 -2 2 Z " fill="#333333" transform="translate(530,28)"/>
<path d="M0 0 C0 0.99 0 1.98 0 3 C-2.5 5.1875 -2.5 5.1875 -5 7 C-5.66 6.34 -6.32 5.68 -7 5 C-3 1 -3 1 0 0 Z " fill="#333333" transform="translate(545,117)"/>
<path d="M0 0 C0.99 0 1.98 0 3 0 C2.67 2.31 2.34 4.62 2 7 C0.68 6.67 -0.64 6.34 -2 6 C-1.34 4.02 -0.68 2.04 0 0 Z " fill="#434343" transform="translate(547,103)"/>
<path d="M0 0 C1.18771723 3.42943519 0.80226223 5.37784675 -0.4375 8.75 C-0.86869141 9.94882813 -0.86869141 9.94882813 -1.30859375 11.171875 C-1.65083984 12.07679687 -1.65083984 12.07679687 -2 13 C-2.33 13 -2.66 13 -3 13 C-3 10.03 -3 7.06 -3 4 C-2.34 3.67 -1.68 3.34 -1 3 C-0.67 2.01 -0.34 1.02 0 0 Z " fill="#3FA7EC" transform="translate(404,70)"/>
<path d="M0 0 C0.66 0 1.32 0 2 0 C1.19642857 8.03571429 1.19642857 8.03571429 -1 12 C-1.02687279 10.18757948 -1.04633715 8.37504767 -1.0625 6.5625 C-1.07410156 5.55316406 -1.08570313 4.54382813 -1.09765625 3.50390625 C-1 1 -1 1 0 0 Z " fill="#303030" transform="translate(432,61)"/>
<path d="M0 0 C0.99 0 1.98 0 3 0 C4 3 4 3 4 6 C2.68 6.33 1.36 6.66 0 7 C-1.125 2.25 -1.125 2.25 0 0 Z " fill="#3D3D3D" transform="translate(479,50)"/>
<path d="M0 0 C0.99 0.33 1.98 0.66 3 1 C2.34 1 1.68 1 1 1 C0.67 5.95 0.34 10.9 0 16 C-0.33 16 -0.66 16 -1 16 C-1.22127098 13.70954632 -1.4266504 11.41755236 -1.625 9.125 C-1.74101562 7.84882813 -1.85703125 6.57265625 -1.9765625 5.2578125 C-1.98816406 3.64519531 -1.98816406 3.64519531 -2 2 C-1.34 1.34 -0.68 0.68 0 0 Z " fill="#339CE0" transform="translate(270,22)"/>
<path d="M0 0 C2.31 0 4.62 0 7 0 C7 0.66 7 1.32 7 2 C7.66 2.33 8.32 2.66 9 3 C6.36 3 3.72 3 1 3 C0.67 2.01 0.34 1.02 0 0 Z " fill="#2F2F2F" transform="translate(478,149)"/>
<path d="M0 0 C-0.33 1.98 -0.66 3.96 -1 6 C-1.99 6.33 -2.98 6.66 -4 7 C-4.66 5.02 -5.32 3.04 -6 1 C-3.92446352 0.4465236 -2.15634036 0 0 0 Z " fill="#1A9AEB" transform="translate(407,64)"/>
<path d="M0 0 C0 0.66 0 1.32 0 2 C-0.99 2.495 -0.99 2.495 -2 3 C-2.65213292 5.02463255 -2.65213292 5.02463255 -3 7 C-3.99 6.67 -4.98 6.34 -6 6 C-5.34 6 -4.68 6 -4 6 C-4 5.34 -4 4.68 -4 4 C-4.66 4 -5.32 4 -6 4 C-5.67 3.01 -5.34 2.02 -5 1 C-3 0 -3 0 0 0 Z " fill="#2D2D2D" transform="translate(527,127)"/>
<path d="M0 0 C3.08035356 3.08035356 4.06916801 6.81125605 5 11 C4.01 11.495 4.01 11.495 3 12 C2.49166409 10.75336669 1.99368855 9.50250613 1.5 8.25 C1.2215625 7.55390625 0.943125 6.8578125 0.65625 6.140625 C0 4 0 4 0 0 Z " fill="#303030" transform="translate(452,92)"/>
<path d="M0 0 C2 1 2 1 2 1 Z M-1 1 C-0.34 1.66 0.32 2.32 1 3 C-1.17424117 5.50037734 -2.73045798 6.43628586 -6 7 C-4.35 5.02 -2.7 3.04 -1 1 Z M-8 8 C-7.34 8.66 -6.68 9.32 -6 10 C-6.66 10 -7.32 10 -8 10 C-8 9.34 -8 8.68 -8 8 Z " fill="#323232" transform="translate(467,40)"/>
<path d="M0 0 C0.66 0.66 1.32 1.32 2 2 C-0.3125 4.0625 -0.3125 4.0625 -3 6 C-3.99 5.67 -4.98 5.34 -6 5 C-4.06745228 2.9754262 -2.36841312 1.57894208 0 0 Z " fill="#343434" transform="translate(123,109)"/>
<path d="M0 0 C1.485 0.99 1.485 0.99 3 2 C2.67 4.64 2.34 7.28 2 10 C-0.4294516 6.3558226 -0.16179575 4.28758728 0 0 Z " fill="#1C9BEA" transform="translate(353,91)"/>
<path d="M0 0 C2.31 0.33 4.62 0.66 7 1 C7 1.99 7 2.98 7 4 C4.03 3.505 4.03 3.505 1 3 C0.67 2.01 0.34 1.02 0 0 Z " fill="#2E2E2E" transform="translate(555,27)"/>
<path d="M0 0 C1.85776765 3.13498292 2.20140476 5.37471432 2 9 C1.34 9 0.68 9 0 9 C-1.125 2.25 -1.125 2.25 0 0 Z " fill="#333333" transform="translate(551,66)"/>
<path d="M0 0 C2.475 0.495 2.475 0.495 5 1 C4.67 2.65 4.34 4.3 4 6 C2.62437146 4.71034824 1.29233607 3.37310707 0 2 C0 1.34 0 0.68 0 0 Z " fill="#353535" transform="translate(535,0)"/>
<path d="M0 0 C1.32 0.99 2.64 1.98 4 3 C3.34 4.32 2.68 5.64 2 7 C1.01 6.67 0.02 6.34 -1 6 C-1 3 -1 3 0 0 Z " fill="#424242" transform="translate(464,139)"/>
<path d="M0 0 C0.99 0.99 1.98 1.98 3 3 C2 4 2 4 -1.0625 4.0625 C-2.5165625 4.0315625 -2.5165625 4.0315625 -4 4 C-3.67 3.01 -3.34 2.02 -3 1 C-2.01 0.67 -1.02 0.34 0 0 Z " fill="#333333" transform="translate(93,114)"/>
<path d="M0 0 C-0.33 1.65 -0.66 3.3 -1 5 C-1.33 3.68 -1.66 2.36 -2 1 C-5.3 1 -8.6 1 -12 1 C-12 0.67 -12 0.34 -12 0 C-10.37585622 -0.19477739 -8.75063577 -0.38059458 -7.125 -0.5625 C-6.22007812 -0.66691406 -5.31515625 -0.77132812 -4.3828125 -0.87890625 C-2 -1 -2 -1 0 0 Z " fill="#489CD1" transform="translate(416,37)"/>
<path d="M0 0 C0.66 1.32 1.32 2.64 2 4 C0.68 4.33 -0.64 4.66 -2 5 C-2.66 3.68 -3.32 2.36 -4 1 C-2.68 0.67 -1.36 0.34 0 0 Z " fill="#313131" transform="translate(463,139)"/>
<path d="M0 0 C0.66 0.99 1.32 1.98 2 3 C1.34 3.66 0.68 4.32 0 5 C-2.125 4.625 -2.125 4.625 -4 4 C-2.68 2.68 -1.36 1.36 0 0 Z " fill="#424242" transform="translate(107,94)"/>
<path d="M0 0 C0.33 0.66 0.66 1.32 1 2 C1.66 2 2.32 2 3 2 C3 3.98 3 5.96 3 8 C2.34 8 1.68 8 1 8 C0.67 5.36 0.34 2.72 0 0 Z " fill="#2E2E2E" transform="translate(554,69)"/>
<path d="M0 0 C2.475 0.495 2.475 0.495 5 1 C4.34 2.32 3.68 3.64 3 5 C2.01 5 1.02 5 0 5 C0 3.35 0 1.7 0 0 Z " fill="#313131" transform="translate(487,56)"/>
</svg>
